<?xml version="1.0" encoding="utf-8"?>
<!-- Generator: Adobe Illustrator 18.0.0, SVG Export Plug-In . SVG Version: 6.00 Build 0)  -->
<!DOCTYPE svg PUBLIC "-//W3C//DTD SVG 1.1//EN" "http://www.w3.org/Graphics/SVG/1.1/DTD/svg11.dtd">
<svg version="1.1" id="Layer_2" xmlns="http://www.w3.org/2000/svg" xmlns:xlink="http://www.w3.org/1999/xlink" x="0px" y="0px"
	 viewBox="-240 462 60 60" enable-background="new -240 462 60 60" xml:space="preserve">
<path fill="#1658A5" d="M-201.7,505.7h8v-26.5h-7.4v16.5l-2.1-2.1v-13.2c0-7.7,0.9-11.4,0.9-11.4c-2.5,0-3.8,2.4-4.1,3.1
	c-1.4,0.2-2.5,1-3.3,2.5c-0.4,0.9-0.6,1.7-0.7,2.2c-2.9,0.7-3.2,5.9-3,6.9l-4.6-4.5h-8v26.5h7.3v-16c0,0,3.6,3.4,3.6,3.4
	c0.3,1,0.6,1.4,0.6,1.4l-1.4-1.2c-0.3,2.6,0.5,3.9,1.2,4.9l-1.7-1.4c-0.1,2.6,1.1,4.2,1.9,4.8l-2.2-1.1c-0.2,1.5,1.4,3.8,2.3,4.2
	l-1.9-0.3c0.4,2.1,1.9,2.9,1.9,2.9s-3.2-0.1-4.7-0.1c-4.1,0-6.8,0.4-6.8,0.4s1.8,1.8,4.1,1.9l-2.1,1.3c1.5,0.5,2.9,0.3,2.9,0.3
	l-1.2,1.4c0,0,3.8-1.5,5.4-1.3c1.3,0.1,7.2,2.4,11.2,2.4c2.7,0,4.6-1,6.2-1.8c0.9-0.5,1.8-0.9,2.6-1c1.4-0.2,2.1,0.3,2.1,0.3
	c0.1-0.6,0.6-2.1-1.7-2.5c-0.1-0.4-0.5-1-1.1-1.1c-1.3-0.2-6.6-0.6-6.7-0.6c-0.5,0-2-0.3-0.6-2.3c0.1-0.2,0.8-1,0.8-1L-201.7,505.7z
	 M-201.9,507.6c1.7,0.1,3,0.2,4.2,0.4c0.5,0.1,0.7,0.6,0.7,0.9c-0.6-0.1-1.5-0.2-1.5-0.2l-0.1,0.6c0,0,0.8-0.2,1.7-0.2
	c0,0,1.8,0,1.7,1.2c-0.5-0.3-1.5-0.2-1.8-0.2c-0.9,0.1-1.8,0.6-2.8,1.1c-0.9,0.5-1.9,1-3.1,1.4c0.5-0.5,1.8-2,1.8-2l-1.8-0.6
	l1.4-1.3l-2.2-1.2C-202.9,507.6-202.4,507.6-201.9,507.6 M-204.5,502.9c-0.8,0.9-1.9,2.3-1.6,3.3l0,0c0.2,0.8,1.3,1.3,1.3,1.3
	l2.5,1.3l-1.6,1.4l1.9,0.6c0,0-1.8,1.8-2,2c-0.5,0.1-1,0.1-1.6,0.1c-4.1,0-9.8-2.4-11.2-2.4c-1.7,0-3.8,1-3.8,1l1.1-1.2
	c0,0-1.5,0.3-2.9,0.2l2-1.4c-1.7-0.1-3.3-0.6-4-1.1c0,0,3.2-0.3,7.6-0.2c1.8,0,4.8,0.2,4.8,0.2c-1.5-0.6-2.9-1.5-3.5-2.9l2.8,0.4
	c-1.2-0.7-2.9-2.5-3.2-3.9l3.1,1.1c-0.6-0.6-2.5-2.4-2.9-4.5l2.5,1.6c-0.7-0.7-2.4-4.1-2.1-5.2l2.3,1.6c-1.1-1.4-2.4-5-1.5-6.4
	c0.7,2.7,2.3,3.7,2.3,3.7c-1-1.5-3.3-6.8-1.1-9.1c0.6,5.3,2.8,7.1,2.8,7.1c-1.9-3-4-12,0-13.9c-0.8,5.8,1.1,9,1.1,9
	c-1.2-5.4-1.1-13,2.9-13.7c-2,5.7-0.6,10.2-0.6,10.2c-0.3-13.4,4-13.2,4-13.2s-0.7,3.8-0.7,10.6V500
	C-203.8,501.4-203.9,502.2-204.5,502.9"/>
<path fill="#FFFFFF" d="M-201.9,507.6c1.7,0.1,3,0.2,4.2,0.4c0.5,0.1,0.7,0.6,0.7,0.9c-0.6-0.1-1.5-0.2-1.5-0.2l-0.1,0.6
	c0,0,0.8-0.2,1.7-0.2c0,0,1.8,0,1.7,1.2c-0.5-0.3-1.5-0.2-1.8-0.2c-0.9,0.1-1.8,0.6-2.8,1.1c-0.9,0.5-1.9,1-3.1,1.4
	c0.5-0.5,1.8-2,1.8-2l-1.8-0.6l1.4-1.3l-2.2-1.2C-202.9,507.6-202.4,507.6-201.9,507.6 M-204.5,502.9c-0.8,0.9-1.9,2.3-1.6,3.3l0,0
	c0.2,0.8,1.3,1.3,1.3,1.3l2.5,1.3l-1.6,1.4l1.9,0.6c0,0-1.8,1.8-2,2c-0.5,0.1-1,0.1-1.6,0.1c-4.1,0-9.8-2.4-11.2-2.4
	c-1.7,0-3.8,1-3.8,1l1.1-1.2c0,0-1.5,0.3-2.9,0.2l2-1.4c-1.7-0.1-3.3-0.6-4-1.1c0,0,3.2-0.3,7.6-0.2c1.8,0,4.8,0.2,4.8,0.2
	c-1.5-0.6-2.9-1.5-3.5-2.9l2.8,0.4c-1.2-0.7-2.9-2.5-3.2-3.9l3.1,1.1c-0.6-0.6-2.5-2.4-2.9-4.5l2.5,1.6c-0.7-0.7-2.4-4.1-2.1-5.2
	l2.3,1.6c-1.1-1.4-2.4-5-1.5-6.4c0.7,2.7,2.3,3.7,2.3,3.7c-1-1.5-3.3-6.8-1.1-9.1c0.6,5.3,2.8,7.1,2.8,7.1c-1.9-3-4-12,0-13.9
	c-0.8,5.8,1.1,9,1.1,9c-1.2-5.4-1.1-13,2.9-13.7c-2,5.7-0.6,10.2-0.6,10.2c-0.3-13.4,4-13.2,4-13.2s-0.7,3.8-0.7,10.6V500
	C-203.8,501.4-203.9,502.2-204.5,502.9"/>
</svg>
