<?xml version="1.0" encoding="utf-8"?>
<!-- Generator: Adobe Illustrator 18.0.0, SVG Export Plug-In . SVG Version: 6.00 Build 0)  -->
<!DOCTYPE svg PUBLIC "-//W3C//DTD SVG 1.1//EN" "http://www.w3.org/Graphics/SVG/1.1/DTD/svg11.dtd">
<svg version="1.1" id="Layer_2" xmlns="http://www.w3.org/2000/svg" xmlns:xlink="http://www.w3.org/1999/xlink" x="0px" y="0px"
	 viewBox="0 0 160 60" enable-background="new 0 0 160 60" xml:space="preserve">
<g id="Layer_2_1_">
	<g>
		<path fill="#1658A5" d="M29.3,43.7h8V17.1h-7.4v16.5l-2.1-2.1V18.4c0-7.7,0.9-11.4,0.9-11.4c-2.5,0-3.8,2.4-4.1,3.1
			c-1.4,0.2-2.5,1-3.3,2.5c-0.4,0.9-0.6,1.7-0.7,2.2c-2.9,0.7-3.2,5.9-3,6.9L13,17.1H5v26.5h7.3v-16c0,0,3.6,3.4,3.6,3.4
			c0.3,1,0.6,1.4,0.6,1.4l-1.4-1.2c-0.3,2.6,0.5,3.9,1.2,4.9l-1.7-1.4c-0.1,2.6,1.1,4.2,1.9,4.8l-2.2-1.1c-0.2,1.5,1.4,3.8,2.3,4.2
			l-1.9-0.3c0.4,2.1,1.9,2.9,1.9,2.9s-3.2-0.1-4.7-0.1c-4.1,0-6.8,0.4-6.8,0.4s1.8,1.8,4.1,1.9l-2.1,1.3c1.5,0.5,2.9,0.3,2.9,0.3
			l-1.2,1.4c0,0,3.8-1.5,5.4-1.3c1.3,0.1,7.2,2.4,11.2,2.4c2.7,0,4.6-1,6.2-1.8c0.9-0.5,1.8-0.9,2.6-1c1.4-0.2,2.1,0.3,2.1,0.3
			c0.1-0.6,0.6-2.1-1.7-2.5c-0.1-0.4-0.5-1-1.1-1.1c-1.3-0.2-6.6-0.6-6.7-0.6c-0.5,0-2-0.3-0.6-2.3c0.1-0.2,0.8-1,0.8-1L29.3,43.7z
			 M29.1,45.6c1.7,0.1,3,0.2,4.2,0.4c0.5,0.1,0.7,0.6,0.7,0.9c-0.6-0.1-1.5-0.2-1.5-0.2l-0.1,0.6c0,0,0.8-0.2,1.7-0.2
			c0,0,1.8,0,1.7,1.2c-0.5-0.3-1.5-0.2-1.8-0.2c-0.9,0.1-1.8,0.6-2.8,1.1c-0.9,0.5-1.9,1-3.1,1.4c0.5-0.5,1.8-2,1.8-2L28.3,48
			l1.4-1.3l-2.2-1.2C28.1,45.6,28.6,45.6,29.1,45.6 M26.5,40.9c-0.8,0.9-1.9,2.3-1.6,3.3l0,0c0.2,0.8,1.3,1.3,1.3,1.3l2.5,1.3
			L27,48.2l1.9,0.6c0,0-1.8,1.8-2,2c-0.5,0.1-1,0.1-1.6,0.1c-4.1,0-9.8-2.4-11.2-2.4c-1.7,0-3.8,1-3.8,1l1.1-1.2
			c0,0-1.5,0.3-2.9,0.2l2-1.4c-1.7-0.1-3.3-0.6-4-1.1c0,0,3.2-0.3,7.6-0.2C16,45.8,19,46,19,46c-1.5-0.6-2.9-1.5-3.5-2.9l2.8,0.4
			c-1.2-0.7-2.9-2.5-3.2-3.9l3.1,1.1c-0.6-0.6-2.5-2.4-2.9-4.5l2.5,1.6c-0.7-0.7-2.4-4.1-2.1-5.2l2.3,1.6c-1.1-1.4-2.4-5-1.5-6.4
			c0.7,2.7,2.3,3.7,2.3,3.7c-1-1.5-3.3-6.8-1.1-9.1c0.6,5.3,2.8,7.1,2.8,7.1c-1.9-3-4-12,0-13.9c-0.8,5.8,1.1,9,1.1,9
			c-1.2-5.4-1.1-13,2.9-13.7c-2,5.7-0.6,10.2-0.6,10.2c-0.3-13.4,4-13.2,4-13.2s-0.7,3.8-0.7,10.6V38C27.2,39.4,27.1,40.2,26.5,40.9
			"/>
		<path d="M81.6,23.6c0.9,0,1.7,0.7,1.7,1.6c0,0.9-0.8,1.6-1.7,1.6c-0.9,0-1.7-0.7-1.7-1.6C79.9,24.4,80.7,23.6,81.6,23.6"/>
		<path d="M124.9,23.6c0.9,0,1.7,0.7,1.7,1.6c0,0.9-0.8,1.6-1.7,1.6c-0.9,0-1.7-0.7-1.7-1.6C123.2,24.4,124,23.6,124.9,23.6"/>
		<path d="M67.3,33.7H67c-0.4,0-1.5,0.1-2.3,0.3c-0.6,0.2-1,0.5-1,1c0,0.7,0.7,1,1.4,1c1.4,0,2.2-0.9,2.2-2V33.7L67.3,33.7z M70,32
			v6h-2.6v-1c-0.7,0.7-1.5,1.2-2.8,1.2c-2.1,0.1-3.7-1.2-3.7-3.1c0-2.9,3.1-3.5,6.1-3.5h0.3c0-0.8-0.4-1.5-2-1.5c-1.1,0-2,0.3-2.7,1
			L61,29.4c1.1-1.1,2.6-1.6,4.3-1.6c1.7,0,2.6,0.2,3.5,1.1C69.8,29.7,70,31.2,70,32"/>
		<path d="M75.7,28.1v-3.1h-2.8v3.1h-2v2.4h2v4.2c0,1.4,0.2,2.3,0.8,2.8c0.5,0.5,1.3,0.8,2.5,0.8c0.8,0,1.5-0.2,2.1-0.4v-2.2
			c-0.4,0.1-0.9,0.2-1.5,0.2c-0.9,0-1.1-0.5-1.1-1.3v-4.1h2.6v-2.4L75.7,28.1L75.7,28.1z"/>
		<path d="M147.6,31.9c-0.1-1.1-0.7-1.9-2.1-1.8c-1.2,0-2,0.8-2.1,1.8H147.6z M150.6,33.2V34h-7.3c0,1,1.2,1.9,2.6,1.9
			c1.3,0.1,2-0.4,2.6-1.2l1.8,1.3c-1.1,1.4-2.4,2.2-4.4,2.2c-3,0-5.5-1.9-5.5-5.2c0-2.7,1.7-5.2,5.2-5.2
			C149.1,27.8,150.6,30.6,150.6,33.2"/>
		<polygon points="56,23.6 56,33.4 49.8,23.6 46,23.6 46,38 49.1,38 49.1,27.9 55.4,38 59.1,38 59.1,23.6 		"/>
		<polygon points="119.5,28.1 117.9,34.2 116.3,28.1 113.3,28.1 111.8,34.2 110.2,28.1 107.1,28.1 110.2,38 113.1,38 114.8,31.8 
			116.7,38 119.3,38 122.5,28.1 		"/>
		<rect x="80.2" y="28.1" width="2.9" height="10"/>
		<rect x="123.5" y="28.1" width="2.9" height="10"/>
		<path d="M105.3,28.7c-0.6-0.6-1.3-0.9-2.5-0.9c-1.1,0-2.4,0.5-3,1.3v-1.1h-2.7v10h2.9v-5.4c0-0.7,0.2-1.2,0.5-1.6
			c0.3-0.3,0.7-0.5,1.2-0.6c0.6,0,1,0.2,1.2,0.6c0.3,0.4,0.4,1.1,0.4,2v5h2.9v-6.2C106.3,30.6,106.1,29.6,105.3,28.7"/>
		<path d="M135.9,33c0-1.3-0.9-2.7-2.5-2.7c-1.7,0-2.5,1.4-2.5,2.7c0,1.3,0.9,2.7,2.5,2.7C135.1,35.7,135.9,34.4,135.9,33
			 M138.7,23.6V38H136v-1.1c-0.6,0.7-1.7,1.3-3.1,1.3c-1.4,0-2.6-0.5-3.5-1.3c-0.9-0.9-1.5-2.3-1.5-3.9c0-3,2-5.2,4.8-5.2
			c1.2,0,2.2,0.4,3,1.1v-5.4L138.7,23.6L138.7,23.6z"/>
		<path d="M90.1,30.3c-1.7,0-2.5,1.4-2.5,2.7c0,1.3,0.9,2.7,2.5,2.7c1.7,0,2.5-1.4,2.5-2.7C92.6,31.7,91.8,30.3,90.1,30.3 M95.5,33
			c0,3-2.3,5.2-5.4,5.2c-3.1,0-5.4-2.2-5.4-5.2c0-3,2.3-5.2,5.4-5.2C93.2,27.8,95.5,30,95.5,33"/>
		<path d="M150.8,25.8c0-1,0.8-1.9,1.9-1.9s1.9,0.8,1.9,1.9c0,1-0.8,1.9-1.9,1.9C151.7,27.7,150.8,26.9,150.8,25.8 M150.4,25.8
			c0,1.3,1,2.3,2.3,2.3c1.3,0,2.3-1,2.3-2.3c0-1.3-1-2.3-2.3-2.3C151.5,23.5,150.4,24.6,150.4,25.8 M152.3,24.9h0.4
			c0.3,0,0.6,0,0.6,0.4c0,0.3-0.3,0.4-0.6,0.4h-0.4V24.9z M151.8,27.1h0.5V26h0.4l0.6,1.1h0.5l-0.7-1.1c0.4,0,0.6-0.3,0.6-0.7
			c0-0.5-0.3-0.8-0.9-0.8h-1V27.1L151.8,27.1z"/>
		<path fill="#FFFFFF" d="M29.1,45.6c1.7,0.1,3,0.2,4.2,0.4c0.5,0.1,0.7,0.6,0.7,0.9c-0.6-0.1-1.5-0.2-1.5-0.2l-0.1,0.6
			c0,0,0.8-0.2,1.7-0.2c0,0,1.8,0,1.7,1.2c-0.5-0.3-1.5-0.2-1.8-0.2c-0.9,0.1-1.8,0.6-2.8,1.1c-0.9,0.5-1.9,1-3.1,1.4
			c0.5-0.5,1.8-2,1.8-2L28.3,48l1.4-1.3l-2.2-1.2C28.1,45.6,28.6,45.6,29.1,45.6 M26.5,40.9c-0.8,0.9-1.9,2.3-1.6,3.3l0,0
			c0.2,0.8,1.3,1.3,1.3,1.3l2.5,1.3L27,48.2l1.9,0.6c0,0-1.8,1.8-2,2c-0.5,0.1-1,0.1-1.6,0.1c-4.1,0-9.8-2.4-11.2-2.4
			c-1.7,0-3.8,1-3.8,1l1.1-1.2c0,0-1.5,0.3-2.9,0.2l2-1.4c-1.7-0.1-3.3-0.6-4-1.1c0,0,3.2-0.3,7.6-0.2C16,45.8,19,46,19,46
			c-1.5-0.6-2.9-1.5-3.5-2.9l2.8,0.4c-1.2-0.7-2.9-2.5-3.2-3.9l3.1,1.1c-0.6-0.6-2.5-2.4-2.9-4.5l2.5,1.6c-0.7-0.7-2.4-4.1-2.1-5.2
			l2.3,1.6c-1.1-1.4-2.4-5-1.5-6.4c0.7,2.7,2.3,3.7,2.3,3.7c-1-1.5-3.3-6.8-1.1-9.1c0.6,5.3,2.8,7.1,2.8,7.1c-1.9-3-4-12,0-13.9
			c-0.8,5.8,1.1,9,1.1,9c-1.2-5.4-1.1-13,2.9-13.7c-2,5.7-0.6,10.2-0.6,10.2c-0.3-13.4,4-13.2,4-13.2s-0.7,3.8-0.7,10.6V38
			C27.2,39.4,27.1,40.2,26.5,40.9"/>
	</g>
</g>
</svg>
